# xmcd
#
# Track frame offsets: 
#        150
#        21547
#        42572
#        64823
#        86233
#        104170
#        123712
#        138220
#        155363
#        172221
#        192325
#
# Disc length: 2864 seconds
#
# Revision: 0
# Processed by: cddbd v1.5.2PL0 Copyright (c) Steve Scherf et al.
# Submitted via: ExactAudioCopy v0.95b4
#
DISCID=ab0b2e0b
DTITLE=Charlie A'Court - Bring on the Storm
DYEAR=2006
DGENRE=Blues
TTITLE0=Big Dark Canyon
TTITLE1=Take Me Down
TTITLE2=Give It All to You
TTITLE3=Broken Man
TTITLE4=If You Go
TTITLE5=Bring On The Storm
TTITLE6=Isolation Blues
TTITLE7=Heartache Of A Fool
TTITLE8=Seeing You Around
TTITLE9=Yes You Are
TTITLE10=Dreams To Remember
EXTD=
EXTT0=
EXTT1=
EXTT2=
EXTT3=
EXTT4=
EXTT5=
EXTT6=
EXTT7=
EXTT8=
EXTT9=
EXTT10=
PLAYORDER=
